<svg width="1920" height="1080" viewBox="0 0 1920 1080" fill="none" xmlns="http://www.w3.org/2000/svg">
<g style="mix-blend-mode:multiply" opacity="0.25">
<path d="M-7 1773L177.605 1647.62L37.1941 1694.4L708.253 1155.48L624.984 1290.2L1073 973.956V1025.36L1015.2 1086.24L1073 1060.04V1172.31L770.292 1373.48L949.894 1177.93L656.008 1373.48L727.843 1353.83L282.113 1625.16L571.101 1505.41L494.368 1582.13L322.923 1720.61L1073 1295.82V1402.49L616.818 1630.78L507.432 1773H141.692L249.449 1705.64L74.7456 1773H-7Z" fill="url(#paint0_linear_264_3057)"/>
<path d="M-7 1323.89L505.793 1002.03L123.731 1151.73L131.888 1129.28L-7 1196.64L-7 1323.89Z" fill="url(#paint1_linear_264_3057)"/>
<path d="M-7 1114.3L92.7067 1065.65L159.654 1114.3L189.039 1099.34L280.474 932.792L657.638 670.814L325.314 695.14L722.936 427.543L287.001 605.314L391.49 580.998L35.5552 770.923L153.117 753.151L-7 857.944L-7 966.477L156.385 889.759L69.848 962.737L275.576 891.628L-7 1061.91L-7 1114.3Z" fill="url(#paint2_linear_264_3057)"/>
<path d="M1073 874.782L687.024 1093.73L1073 829.869V874.782Z" fill="url(#paint3_linear_264_3057)"/>
<path d="M1073 796.194L811.112 930.923L1073 758.77V796.194Z" fill="url(#paint4_linear_264_3057)"/>
<path d="M1073 614.673L755.6 794.315L796.42 741.923L481.295 910.336L722.936 829.869L642.936 884.14L745.795 865.423L927.035 762.51L899.289 807.413L1073 723.216L942.056 734.434L1073 667.075V614.673Z" fill="url(#paint5_linear_264_3057)"/>
<path d="M1073 356.435L868.254 549.184L858.458 646.489L532.999 829.87L803.004 603.455L765.394 554.803L942.055 406.967L770.292 455.619L1073 193.641V356.435Z" fill="url(#paint6_linear_264_3057)"/>
<path d="M1073 427.544L880.006 633.391L1073 530.468V427.544Z" fill="url(#paint7_linear_264_3057)"/>
<path d="M1073 36.4443L752.332 272.227L880.007 227.314L687.024 362.052L909.074 272.227L868.255 324.628L1073 173.052L930.304 229.193L1073 124.39V36.4443Z" fill="url(#paint8_linear_264_3057)"/>
<path d="M1073 -64.6083L368.642 279.716L584.155 216.096L575.999 257.26L647.834 261L1073 8.37977V-64.6083Z" fill="url(#paint9_linear_264_3057)"/>
<path d="M1073 -102.023L242.923 234.803L549.872 66.3903L564.565 25.2171L752.332 -83.3156L556.409 -14.0768L704.985 -102.023L357.969 21.4776L242.923 8.37961L758.859 -199.337L708.254 -133.838L1073 -306V-102.023Z" fill="url(#paint10_linear_264_3057)"/>
<path d="M-6.99951 -142.261L402.114 -306H505.793L-6.99951 1.35358L-6.99951 -64.6084L137.605 -136.652L-6.99951 -111.391L-6.99951 -142.261Z" fill="url(#paint11_linear_264_3057)"/>
<path d="M-7 54.2177L206.181 23.3474L66.5894 107.554L-7 234.804L-7 54.2177Z" fill="url(#paint12_linear_264_3057)"/>
<path d="M-7 614.672L140.053 483.683L264.962 483.683L583.344 301.237L481.295 315.27L505.793 279.716L206.181 379.825L-7 494.911L-7 614.672Z" fill="url(#paint13_linear_264_3057)"/>
<path d="M-7 427.545L184.142 362.055L-7 264.751L-7 427.545Z" fill="url(#paint14_linear_264_3057)"/>
<path d="M99.5811 234.805L451.09 54.2195L260.064 87.9041L99.5811 234.805Z" fill="url(#paint15_linear_264_3057)"/>
<path d="M206.182 1308.92L558.857 1129.28H481.296L505.794 1073.14L206.182 1308.92Z" fill="url(#paint16_linear_264_3057)"/>
</g>
<g style="mix-blend-mode:multiply" opacity="0.25">
<path d="M1073 1755L1257.6 1629.62L1117.19 1676.4L1788.25 1137.48L1704.98 1272.2L2153 955.956V1007.36L2095.2 1068.24L2153 1042.04V1154.31L1850.29 1355.48L2029.89 1159.93L1736.01 1355.48L1807.84 1335.83L1362.11 1607.16L1651.1 1487.41L1574.37 1564.13L1402.92 1702.61L2153 1277.82V1384.49L1696.82 1612.78L1587.43 1755H1221.69L1329.45 1687.64L1154.75 1755H1073Z" fill="url(#paint17_linear_264_3057)"/>
<path d="M1073 1305.89L1585.79 984.032L1203.73 1133.73L1211.89 1111.28L1073 1178.64V1305.89Z" fill="url(#paint18_linear_264_3057)"/>
<path d="M1073 1096.3L1172.71 1047.65L1239.65 1096.3L1269.04 1081.34L1360.47 914.792L1737.64 652.814L1405.31 677.14L1802.94 409.543L1367 587.314L1471.49 562.998L1115.56 752.923L1233.12 735.151L1073 839.944V948.477L1236.39 871.759L1149.85 944.737L1355.58 873.628L1073 1043.91V1096.3Z" fill="url(#paint19_linear_264_3057)"/>
<path d="M2153 856.782L1767.02 1075.73L2153 811.869V856.782Z" fill="url(#paint20_linear_264_3057)"/>
<path d="M2153 778.194L1891.11 912.923L2153 740.77V778.194Z" fill="url(#paint21_linear_264_3057)"/>
<path d="M2153 596.673L1835.6 776.315L1876.42 723.923L1561.3 892.336L1802.94 811.869L1722.94 866.14L1825.79 847.423L2007.04 744.51L1979.29 789.413L2153 705.216L2022.06 716.434L2153 649.075V596.673Z" fill="url(#paint22_linear_264_3057)"/>
<path d="M2153 338.435L1948.25 531.184L1938.46 628.489L1613 811.87L1883 585.455L1845.39 536.803L2022.06 388.967L1850.29 437.619L2153 175.641V338.435Z" fill="url(#paint23_linear_264_3057)"/>
<path d="M2153 18.4443L1832.33 254.227L1960.01 209.314L1767.02 344.052L1989.07 254.227L1948.25 306.628L2153 155.052L2010.3 211.193L2153 106.39V18.4443Z" fill="url(#paint24_linear_264_3057)"/>
<path d="M2153 -82.6083L1448.64 261.716L1664.16 198.096L1656 239.26L1727.83 243L2153 -9.62023V-82.6083Z" fill="url(#paint25_linear_264_3057)"/>
<path d="M2153 -120.023L1322.92 216.803L1629.87 48.3903L1644.56 7.21707L1832.33 -101.316L1636.41 -32.0768L1784.99 -120.023L1437.97 3.47757L1322.92 -9.62039L1838.86 -217.337L1788.25 -151.838L2153 -324V-120.023Z" fill="url(#paint26_linear_264_3057)"/>
<path d="M1073 36.2177L1286.18 5.34741L1146.59 89.554L1073 216.804V36.2177Z" fill="url(#paint27_linear_264_3057)"/>
<path d="M1073 596.672L1220.05 465.683L1344.96 465.683L1663.34 283.237L1561.29 297.27L1585.79 261.716L1286.18 361.825L1073 476.911V596.672Z" fill="url(#paint28_linear_264_3057)"/>
<path d="M1073 409.545L1264.14 344.055L1073 246.751V409.545Z" fill="url(#paint29_linear_264_3057)"/>
<path d="M1179.58 216.805L1531.09 36.2195L1340.06 69.9041L1179.58 216.805Z" fill="url(#paint30_linear_264_3057)"/>
<path d="M1286.18 1290.92L1638.86 1111.28H1561.3L1585.79 1055.14L1286.18 1290.92Z" fill="url(#paint31_linear_264_3057)"/>
</g>
<defs>
<linearGradient id="paint0_linear_264_3057" x1="654.736" y1="1278.42" x2="624" y2="1628.38" gradientUnits="userSpaceOnUse">
<stop stop-color="#33267B"/>
<stop offset="1" stop-color="#40357E"/>
</linearGradient>
<linearGradient id="paint1_linear_264_3057" x1="307.198" y1="1124.67" x2="296.672" y2="1265.94" gradientUnits="userSpaceOnUse">
<stop stop-color="#33267B"/>
<stop offset="1" stop-color="#40357E"/>
</linearGradient>
<linearGradient id="paint2_linear_264_3057" x1="440.246" y1="689.221" x2="406.81" y2="988.597" gradientUnits="userSpaceOnUse">
<stop stop-color="#33267B"/>
<stop offset="1" stop-color="#40357E"/>
</linearGradient>
<linearGradient id="paint3_linear_264_3057" x1="923.518" y1="930.408" x2="914.13" y2="1046.1" gradientUnits="userSpaceOnUse">
<stop stop-color="#33267B"/>
<stop offset="1" stop-color="#40357E"/>
</linearGradient>
<linearGradient id="paint4_linear_264_3057" x1="971.575" y1="824.366" x2="965.682" y2="899.888" gradientUnits="userSpaceOnUse">
<stop stop-color="#33267B"/>
<stop offset="1" stop-color="#40357E"/>
</linearGradient>
<linearGradient id="paint5_linear_264_3057" x1="843.844" y1="727.331" x2="836.131" y2="857.367" gradientUnits="userSpaceOnUse">
<stop stop-color="#33267B"/>
<stop offset="1" stop-color="#40357E"/>
</linearGradient>
<linearGradient id="paint6_linear_264_3057" x1="863.867" y1="436.065" x2="825.347" y2="711.485" gradientUnits="userSpaceOnUse">
<stop stop-color="#33267B"/>
<stop offset="1" stop-color="#40357E"/>
</linearGradient>
<linearGradient id="paint7_linear_264_3057" x1="998.257" y1="505.979" x2="986.935" y2="595.398" gradientUnits="userSpaceOnUse">
<stop stop-color="#33267B"/>
<stop offset="1" stop-color="#40357E"/>
</linearGradient>
<linearGradient id="paint8_linear_264_3057" x1="923.518" y1="160.512" x2="909.27" y2="302.796" gradientUnits="userSpaceOnUse">
<stop stop-color="#33267B"/>
<stop offset="1" stop-color="#40357E"/>
</linearGradient>
<linearGradient id="paint9_linear_264_3057" x1="800.215" y1="66.5907" x2="791.426" y2="218.053" gradientUnits="userSpaceOnUse">
<stop stop-color="#33267B"/>
<stop offset="1" stop-color="#40357E"/>
</linearGradient>
<linearGradient id="paint10_linear_264_3057" x1="751.527" y1="-99.9361" x2="733.177" y2="137.335" gradientUnits="userSpaceOnUse">
<stop stop-color="#33267B"/>
<stop offset="1" stop-color="#40357E"/>
</linearGradient>
<linearGradient id="paint11_linear_264_3057" x1="307.198" y1="-188.888" x2="297.595" y2="-53.9172" gradientUnits="userSpaceOnUse">
<stop stop-color="#33267B"/>
<stop offset="1" stop-color="#40357E"/>
</linearGradient>
<linearGradient id="paint12_linear_264_3057" x1="123.62" y1="103.919" x2="112.781" y2="195.972" gradientUnits="userSpaceOnUse">
<stop stop-color="#33267B"/>
<stop offset="1" stop-color="#40357E"/>
</linearGradient>
<linearGradient id="paint13_linear_264_3057" x1="354.715" y1="407.345" x2="344.803" y2="554.515" gradientUnits="userSpaceOnUse">
<stop stop-color="#33267B"/>
<stop offset="1" stop-color="#40357E"/>
</linearGradient>
<linearGradient id="paint14_linear_264_3057" x1="110.116" y1="326.781" x2="102.925" y2="397.905" gradientUnits="userSpaceOnUse">
<stop stop-color="#33267B"/>
<stop offset="1" stop-color="#40357E"/>
</linearGradient>
<linearGradient id="paint15_linear_264_3057" x1="314.957" y1="123.029" x2="310.115" y2="202.437" gradientUnits="userSpaceOnUse">
<stop stop-color="#33267B"/>
<stop offset="1" stop-color="#40357E"/>
</linearGradient>
<linearGradient id="paint16_linear_264_3057" x1="422.273" y1="1162.98" x2="414.066" y2="1266.39" gradientUnits="userSpaceOnUse">
<stop stop-color="#33267B"/>
<stop offset="1" stop-color="#40357E"/>
</linearGradient>
<linearGradient id="paint17_linear_264_3057" x1="1734.74" y1="1260.42" x2="1704" y2="1610.38" gradientUnits="userSpaceOnUse">
<stop stop-color="#33267B"/>
<stop offset="1" stop-color="#40357E"/>
</linearGradient>
<linearGradient id="paint18_linear_264_3057" x1="1387.2" y1="1106.67" x2="1376.67" y2="1247.94" gradientUnits="userSpaceOnUse">
<stop stop-color="#33267B"/>
<stop offset="1" stop-color="#40357E"/>
</linearGradient>
<linearGradient id="paint19_linear_264_3057" x1="1520.25" y1="671.221" x2="1486.81" y2="970.597" gradientUnits="userSpaceOnUse">
<stop stop-color="#33267B"/>
<stop offset="1" stop-color="#40357E"/>
</linearGradient>
<linearGradient id="paint20_linear_264_3057" x1="2003.52" y1="912.408" x2="1994.13" y2="1028.1" gradientUnits="userSpaceOnUse">
<stop stop-color="#33267B"/>
<stop offset="1" stop-color="#40357E"/>
</linearGradient>
<linearGradient id="paint21_linear_264_3057" x1="2051.58" y1="806.366" x2="2045.68" y2="881.888" gradientUnits="userSpaceOnUse">
<stop stop-color="#33267B"/>
<stop offset="1" stop-color="#40357E"/>
</linearGradient>
<linearGradient id="paint22_linear_264_3057" x1="1923.84" y1="709.331" x2="1916.13" y2="839.367" gradientUnits="userSpaceOnUse">
<stop stop-color="#33267B"/>
<stop offset="1" stop-color="#40357E"/>
</linearGradient>
<linearGradient id="paint23_linear_264_3057" x1="1943.87" y1="418.065" x2="1905.35" y2="693.485" gradientUnits="userSpaceOnUse">
<stop stop-color="#33267B"/>
<stop offset="1" stop-color="#40357E"/>
</linearGradient>
<linearGradient id="paint24_linear_264_3057" x1="2003.52" y1="142.512" x2="1989.27" y2="284.796" gradientUnits="userSpaceOnUse">
<stop stop-color="#33267B"/>
<stop offset="1" stop-color="#40357E"/>
</linearGradient>
<linearGradient id="paint25_linear_264_3057" x1="1880.22" y1="48.5907" x2="1871.43" y2="200.053" gradientUnits="userSpaceOnUse">
<stop stop-color="#33267B"/>
<stop offset="1" stop-color="#40357E"/>
</linearGradient>
<linearGradient id="paint26_linear_264_3057" x1="1831.53" y1="-117.936" x2="1813.18" y2="119.335" gradientUnits="userSpaceOnUse">
<stop stop-color="#33267B"/>
<stop offset="1" stop-color="#40357E"/>
</linearGradient>
<linearGradient id="paint27_linear_264_3057" x1="1203.62" y1="85.9192" x2="1192.78" y2="177.972" gradientUnits="userSpaceOnUse">
<stop stop-color="#33267B"/>
<stop offset="1" stop-color="#40357E"/>
</linearGradient>
<linearGradient id="paint28_linear_264_3057" x1="1434.72" y1="389.345" x2="1424.8" y2="536.515" gradientUnits="userSpaceOnUse">
<stop stop-color="#33267B"/>
<stop offset="1" stop-color="#40357E"/>
</linearGradient>
<linearGradient id="paint29_linear_264_3057" x1="1190.12" y1="308.781" x2="1182.93" y2="379.905" gradientUnits="userSpaceOnUse">
<stop stop-color="#33267B"/>
<stop offset="1" stop-color="#40357E"/>
</linearGradient>
<linearGradient id="paint30_linear_264_3057" x1="1394.96" y1="105.029" x2="1390.11" y2="184.437" gradientUnits="userSpaceOnUse">
<stop stop-color="#33267B"/>
<stop offset="1" stop-color="#40357E"/>
</linearGradient>
<linearGradient id="paint31_linear_264_3057" x1="1502.27" y1="1144.98" x2="1494.07" y2="1248.39" gradientUnits="userSpaceOnUse">
<stop stop-color="#33267B"/>
<stop offset="1" stop-color="#40357E"/>
</linearGradient>
</defs>
</svg>
