<svg width="1920" height="1022" viewBox="0 0 1920 1022" fill="none" xmlns="http://www.w3.org/2000/svg">
<path opacity="0.6" d="M1976.8 186.657L1630.88 502.512L1705.75 255.905L1217 759.017L1594.62 458.656L1574.15 616.947L1875.96 342.778L1689.97 678.513L2069.77 222.164L1976.8 186.657Z" fill="url(#paint0_linear_264_3027)"/>
<path opacity="0.6" d="M398.832 729L191.398 970.266L186.524 895.947L-136 1247.69L154.792 977.557L158.003 1051.84L370.953 838.242L317.574 952.776L521.897 753.863L398.832 729Z" fill="url(#paint1_linear_264_3027)"/>
<path opacity="0.6" d="M494.265 104.557L573.79 25L424.1 119.488L483.14 28.6147L289.604 204.668L367.687 166.115L193 348.411L470.892 132.529L400.636 226.444L566.738 94.4997L494.265 104.557Z" fill="url(#paint2_linear_264_3027)"/>
<path opacity="0.6" d="M897.839 776.597L726.828 913.007L769.387 800.429L526 1019.65L711.298 891.444L696.837 964.563L845.994 846.203L748.888 996.853L940.054 796.034L897.839 776.597Z" fill="url(#paint3_linear_264_3027)"/>
<path opacity="0.6" d="M940.332 83.7746L876.77 145.153L807.765 203.711L863.992 135.731L797.403 154.009L974.286 4.82754e-05L878.46 109.86L940.332 83.7746Z" fill="url(#paint4_linear_264_3027)"/>
<path opacity="0.6" d="M216.599 623.284L47.1201 742.92L70.2499 749.039L-81.9998 841.26L22.7562 755.92L4.18586 751.007L159.634 608.214L216.599 623.284Z" fill="url(#paint5_linear_264_3027)"/>
<defs>
<linearGradient id="paint0_linear_264_3027" x1="2070.7" y1="460.745" x2="1266.2" y2="398.963" gradientUnits="userSpaceOnUse">
<stop stop-color="#FCC65E" stop-opacity="0"/>
<stop offset="1" stop-color="#FCC65E"/>
</linearGradient>
<linearGradient id="paint1_linear_264_3027" x1="566.723" y1="909.827" x2="-152.136" y2="1025.65" gradientUnits="userSpaceOnUse">
<stop stop-color="#FCC65E" stop-opacity="0"/>
<stop offset="1" stop-color="#FCC65E"/>
</linearGradient>
<linearGradient id="paint2_linear_264_3027" x1="441.039" y1="2.96451" x2="402.373" y2="361.345" gradientUnits="userSpaceOnUse">
<stop stop-color="#FCC65E" stop-opacity="0"/>
<stop offset="1" stop-color="#FCC65E"/>
</linearGradient>
<linearGradient id="paint3_linear_264_3027" x1="933.062" y1="907.23" x2="560.128" y2="853.411" gradientUnits="userSpaceOnUse">
<stop stop-color="#FCC65E" stop-opacity="0"/>
<stop offset="1" stop-color="#FCC65E"/>
</linearGradient>
<linearGradient id="paint4_linear_264_3027" x1="879.89" y1="200.189" x2="860.888" y2="16.6818" gradientUnits="userSpaceOnUse">
<stop stop-color="#FCC65E" stop-opacity="0"/>
<stop offset="1" stop-color="#FCC65E"/>
</linearGradient>
<linearGradient id="paint5_linear_264_3027" x1="-64.5967" y1="737.645" x2="173.453" y2="789.822" gradientUnits="userSpaceOnUse">
<stop stop-color="#FCC65E" stop-opacity="0"/>
<stop offset="1" stop-color="#FCC65E"/>
</linearGradient>
</defs>
</svg>
