<svg width="1200" height="482" viewBox="0 0 1200 482" fill="none" xmlns="http://www.w3.org/2000/svg">
<path d="M34.6125 477.515L0 4.06394H57.0088L74.6544 267.544H76.6904L99.7654 4.06394H147.273L173.062 267.544H174.42L192.065 4.06394H245.002L209.711 477.515H151.345L124.198 244.515H123.519L100.444 477.515H34.6125Z" fill="url(#paint0_linear_264_3015)"/>
<path d="M317.716 54.1861V218.776H363.187V263.48H317.716V427.393H380.154V477.515H257.314V4.06394H375.403V54.1861H317.716Z" fill="url(#paint1_linear_264_3015)"/>
<path d="M454.909 4.06394V432.811H510.561V477.515H394.507V4.06394H454.909Z" fill="url(#paint2_linear_264_3015)"/>
<path d="M588.285 481.579C580.141 481.579 571.997 480.224 563.853 477.515C555.708 474.806 548.243 470.742 541.456 465.323C535.122 459.453 529.919 452.002 525.847 442.971C522.227 433.94 520.417 423.329 520.417 411.137V70.4419C520.417 58.2501 522.227 47.6386 525.847 38.6076C529.919 29.5766 535.122 22.3518 541.456 16.9332C548.243 11.063 555.708 6.77327 563.853 4.06394C571.997 1.35465 580.141 0 588.285 0H600.501C609.098 0 617.468 1.35465 625.612 4.06394C633.756 6.77327 640.995 11.063 647.33 16.9332C653.664 22.3518 658.641 29.5766 662.261 38.6076C666.333 47.6386 668.369 58.2501 668.369 70.4419V194.393H607.966V79.2472C607.966 68.8615 606.835 61.4109 604.573 56.8954C602.763 52.3799 599.822 50.1221 595.75 50.1221H593.036C588.964 50.1221 585.796 52.3799 583.534 56.8954C581.724 60.9594 580.819 68.41 580.819 79.2472V402.332C580.819 421.748 584.891 431.457 593.036 431.457H595.75C603.894 431.457 607.966 421.748 607.966 402.332V285.832H668.369V411.137C668.369 423.329 666.333 433.94 662.261 442.971C658.641 452.002 653.664 459.453 647.33 465.323C640.995 470.742 633.756 474.806 625.612 477.515C617.468 480.224 609.098 481.579 600.501 481.579H588.285Z" fill="url(#paint3_linear_264_3015)"/>
<path d="M753.977 481.579C745.833 481.579 737.689 480.224 729.545 477.515C721.401 474.806 713.935 470.742 707.149 465.323C700.814 459.453 695.611 452.002 691.539 442.971C687.919 433.94 686.11 423.329 686.11 411.137V70.4419C686.11 58.2501 687.919 47.6386 691.539 38.6076C695.611 29.5766 700.814 22.3518 707.149 16.9332C713.935 11.063 721.401 6.77327 729.545 4.06394C737.689 1.35465 745.833 0 753.977 0H766.193C774.79 0 783.16 1.35465 791.304 4.06394C799.449 6.77327 806.688 11.063 813.022 16.9332C819.356 22.3518 824.333 29.5766 827.953 38.6076C832.025 47.6386 834.061 58.2501 834.061 70.4419V411.137C834.061 423.329 832.025 433.94 827.953 442.971C824.333 452.002 819.356 459.453 813.022 465.323C806.688 470.742 799.449 474.806 791.304 477.515C783.16 480.224 774.79 481.579 766.193 481.579H753.977ZM758.728 50.1221C750.584 50.1221 746.512 59.8305 746.512 79.2472V402.332C746.512 421.748 750.584 431.457 758.728 431.457H761.443C769.587 431.457 773.659 421.748 773.659 402.332V79.2472C773.659 59.8305 769.587 50.1221 761.443 50.1221H758.728Z" fill="url(#paint4_linear_264_3015)"/>
<path d="M1058.12 4.06394V477.515H1008.58V191.006H1007.22L976.678 477.515H933.243L903.381 191.006H902.703V477.515H851.802V4.06394H929.85L954.282 245.869H955.639L981.429 4.06394H1058.12Z" fill="url(#paint5_linear_264_3015)"/>
<path d="M1137.56 54.1861V218.776H1183.03V263.48H1137.56V427.393H1200V477.515H1077.16V4.06394H1195.25V54.1861H1137.56Z" fill="url(#paint6_linear_264_3015)"/>
<defs>
<linearGradient id="paint0_linear_264_3015" x1="601.069" y1="3.38663" x2="601.069" y2="437.343" gradientUnits="userSpaceOnUse">
<stop stop-color="#32218D"/>
<stop offset="1" stop-color="#32218D" stop-opacity="0"/>
</linearGradient>
<linearGradient id="paint1_linear_264_3015" x1="601.069" y1="3.38663" x2="601.069" y2="437.343" gradientUnits="userSpaceOnUse">
<stop stop-color="#32218D"/>
<stop offset="1" stop-color="#32218D" stop-opacity="0"/>
</linearGradient>
<linearGradient id="paint2_linear_264_3015" x1="601.069" y1="3.38663" x2="601.069" y2="437.343" gradientUnits="userSpaceOnUse">
<stop stop-color="#32218D"/>
<stop offset="1" stop-color="#32218D" stop-opacity="0"/>
</linearGradient>
<linearGradient id="paint3_linear_264_3015" x1="601.069" y1="3.38663" x2="601.069" y2="437.343" gradientUnits="userSpaceOnUse">
<stop stop-color="#32218D"/>
<stop offset="1" stop-color="#32218D" stop-opacity="0"/>
</linearGradient>
<linearGradient id="paint4_linear_264_3015" x1="601.069" y1="3.38663" x2="601.069" y2="437.343" gradientUnits="userSpaceOnUse">
<stop stop-color="#32218D"/>
<stop offset="1" stop-color="#32218D" stop-opacity="0"/>
</linearGradient>
<linearGradient id="paint5_linear_264_3015" x1="601.069" y1="3.38663" x2="601.069" y2="437.343" gradientUnits="userSpaceOnUse">
<stop stop-color="#32218D"/>
<stop offset="1" stop-color="#32218D" stop-opacity="0"/>
</linearGradient>
<linearGradient id="paint6_linear_264_3015" x1="601.069" y1="3.38663" x2="601.069" y2="437.343" gradientUnits="userSpaceOnUse">
<stop stop-color="#32218D"/>
<stop offset="1" stop-color="#32218D" stop-opacity="0"/>
</linearGradient>
</defs>
</svg>
